<svg width="648" height="101" viewBox="0 0 648 101" fill="none" xmlns="http://www.w3.org/2000/svg">
<path d="M39.6994 57.2131H14.1881L14.0517 42.505H35.1292C38.8581 42.505 41.8822 42.0552 44.2014 41.1556C46.5661 40.2561 48.2941 38.9517 49.3855 37.2425C50.4769 35.4883 51.0226 33.3293 51.0226 30.7655C51.0226 27.8419 50.4769 25.4805 49.3855 23.6814C48.2941 21.8822 46.5661 20.5778 44.2014 19.7682C41.8822 18.9136 38.8809 18.4863 35.1974 18.4863H22.2371V99.6506H0V1.41683H35.1974C41.1546 1.41683 46.4751 1.95658 51.159 3.03607C55.8429 4.11556 59.822 5.77978 63.0961 8.02872C66.4158 10.2777 68.9396 13.0888 70.6677 16.4623C72.3957 19.8357 73.2597 23.8163 73.2597 28.4041C73.2597 32.4073 72.3502 36.1405 70.5313 39.6039C68.7577 43.0672 65.8928 45.8784 61.9365 48.0374C57.9802 50.1964 52.6824 51.3658 46.0431 51.5458L39.6994 57.2131ZM38.8127 99.6506H8.52651L16.5755 82.6486H38.8127C42.2233 82.6486 44.9972 82.1089 47.1345 81.0294C49.2718 79.9499 50.8407 78.4881 51.8412 76.644C52.8416 74.7998 53.3418 72.7308 53.3418 70.4369C53.3418 67.7381 52.8643 65.3992 51.9094 63.4202C50.9999 61.4411 49.5447 59.9118 47.5438 58.8323C45.5884 57.7528 42.9736 57.2131 39.6994 57.2131H19.7815L19.9179 42.505H44.2696L49.4537 48.3073C55.7747 48.1723 60.8224 49.1844 64.5968 51.3434C68.4167 53.4574 71.1679 56.246 72.8505 59.7094C74.533 63.1728 75.3743 66.8386 75.3743 70.7067C75.3743 77.0937 73.9873 82.4462 71.2134 86.7642C68.4394 91.0372 64.324 94.2532 58.867 96.4122C53.4555 98.5711 46.7707 99.6506 38.8127 99.6506Z" fill="#005792"/>
<path d="M171.69 1.41683V99.6506H149.521L112.004 36.163V99.6506H89.7671V1.41683H112.004L149.589 64.9045V1.41683H171.69Z" fill="#005792"/>
<path d="M245.222 66.7261H267.323C266.959 73.4729 265.095 79.4326 261.73 84.6052C258.41 89.7328 253.794 93.7584 247.883 96.682C241.971 99.5607 234.945 101 226.805 101C220.302 101 214.481 99.898 209.343 97.6941C204.204 95.4901 199.839 92.3416 196.246 88.2485C192.699 84.1104 189.971 79.1403 188.061 73.338C186.196 67.4908 185.264 60.9014 185.264 53.5698V47.5651C185.264 40.2336 186.242 33.6442 188.197 27.7969C190.152 21.9497 192.949 16.957 196.587 12.819C200.225 8.68092 204.591 5.50991 209.684 3.30595C214.777 1.10198 220.461 0 226.737 0C235.195 0 242.335 1.50679 248.155 4.52037C253.976 7.53396 258.478 11.672 261.661 16.9345C264.89 22.1971 266.823 28.2017 267.459 34.9486H245.291C245.109 31.1254 244.381 27.9094 243.108 25.3006C241.834 22.6468 239.879 20.6453 237.241 19.2959C234.604 17.9466 231.102 17.2719 226.737 17.2719C223.554 17.2719 220.757 17.8566 218.347 19.0261C215.982 20.1955 214.004 22.0171 212.412 24.491C210.866 26.9648 209.707 30.1133 208.933 33.9365C208.16 37.7148 207.774 42.2126 207.774 47.4302V53.5698C207.774 58.7424 208.115 63.2178 208.797 66.996C209.479 70.7742 210.571 73.9002 212.071 76.3741C213.617 78.8479 215.596 80.692 218.006 81.9065C220.416 83.1209 223.349 83.7281 226.805 83.7281C230.761 83.7281 234.058 83.1209 236.696 81.9065C239.333 80.6471 241.357 78.758 242.767 76.2391C244.176 73.7203 244.995 70.5493 245.222 66.7261Z" fill="#005792"/>
<path d="M336.763 66.7261H358.864C358.5 73.4729 356.635 79.4326 353.27 84.6052C349.951 89.7328 345.335 93.7584 339.423 96.682C333.511 99.5607 326.486 101 318.346 101C311.843 101 306.022 99.898 300.883 97.6941C295.745 95.4901 291.379 92.3416 287.787 88.2485C284.24 84.1104 281.511 79.1403 279.601 73.338C277.737 67.4908 276.804 60.9014 276.804 53.5698V47.5651C276.804 40.2336 277.782 33.6442 279.738 27.7969C281.693 21.9497 284.49 16.957 288.128 12.819C291.766 8.68092 296.131 5.50991 301.224 3.30595C306.318 1.10198 312.002 0 318.277 0C326.736 0 333.875 1.50679 339.696 4.52037C345.517 7.53396 350.019 11.672 353.202 16.9345C356.431 22.1971 358.363 28.2017 359 34.9486H336.831C336.649 31.1254 335.922 27.9094 334.648 25.3006C333.375 22.6468 331.42 20.6453 328.782 19.2959C326.145 17.9466 322.643 17.2719 318.277 17.2719C315.094 17.2719 312.297 17.8566 309.887 19.0261C307.523 20.1955 305.544 22.0171 303.953 24.491C302.407 26.9648 301.247 30.1133 300.474 33.9365C299.701 37.7148 299.314 42.2126 299.314 47.4302V53.5698C299.314 58.7424 299.656 63.2178 300.338 66.996C301.02 70.7742 302.111 73.9002 303.612 76.3741C305.158 78.8479 307.136 80.692 309.546 81.9065C311.956 83.1209 314.89 83.7281 318.346 83.7281C322.302 83.7281 325.599 83.1209 328.236 81.9065C330.874 80.6471 332.898 78.758 334.307 76.2391C335.717 73.7203 336.535 70.5493 336.763 66.7261Z" fill="#005792"/>
<path d="M402.263 94.0909C404.208 94.0909 406.005 93.6818 407.656 92.8636C409.306 92.0455 410.662 90.9242 411.723 89.5C412.784 88.0455 413.388 86.3939 413.535 84.5455H421.315C421.168 87.4545 420.21 90.1667 418.442 92.6818C416.703 95.1667 414.419 97.1818 411.59 98.7273C408.761 100.242 405.652 101 402.263 101C398.667 101 395.529 100.348 392.847 99.0455C390.195 97.7424 387.984 95.9545 386.216 93.6818C384.477 91.4091 383.166 88.803 382.282 85.8636C381.427 82.8939 381 79.7576 381 76.4545V74.5455C381 71.2424 381.427 68.1212 382.282 65.1818C383.166 62.2121 384.477 59.5909 386.216 57.3182C387.984 55.0455 390.195 53.2576 392.847 51.9545C395.529 50.6515 398.667 50 402.263 50C406.005 50 409.277 50.7879 412.076 52.3636C414.876 53.9091 417.072 56.0303 418.663 58.7273C420.284 61.3939 421.168 64.4242 421.315 67.8182H413.535C413.388 65.7879 412.828 63.9545 411.855 62.3182C410.912 60.6818 409.616 59.3788 407.965 58.4091C406.344 57.4091 404.444 56.9091 402.263 56.9091C399.758 56.9091 397.651 57.4242 395.941 58.4545C394.262 59.4545 392.921 60.8182 391.919 62.5455C390.946 64.2424 390.239 66.1364 389.797 68.2273C389.384 70.2879 389.178 72.3939 389.178 74.5455V76.4545C389.178 78.6061 389.384 80.7273 389.797 82.8182C390.209 84.9091 390.902 86.803 391.875 88.5C392.876 90.197 394.217 91.5606 395.897 92.5909C397.606 93.5909 399.728 94.0909 402.263 94.0909Z" fill="#EF9037"/>
<path d="M428.344 76.0455V75C428.344 71.4545 428.845 68.1667 429.847 65.1364C430.849 62.0758 432.293 59.4242 434.179 57.1818C436.065 54.9091 438.349 53.1515 441.031 51.9091C443.713 50.6364 446.719 50 450.049 50C453.408 50 456.429 50.6364 459.111 51.9091C461.822 53.1515 464.121 54.9091 466.007 57.1818C467.922 59.4242 469.381 62.0758 470.383 65.1364C471.385 68.1667 471.886 71.4545 471.886 75V76.0455C471.886 79.5909 471.385 82.8788 470.383 85.9091C469.381 88.9394 467.922 91.5909 466.007 93.8636C464.121 96.1061 461.837 97.8636 459.155 99.1364C456.503 100.379 453.497 101 450.137 101C446.777 101 443.757 100.379 441.075 99.1364C438.393 97.8636 436.095 96.1061 434.179 93.8636C432.293 91.5909 430.849 88.9394 429.847 85.9091C428.845 82.8788 428.344 79.5909 428.344 76.0455ZM436.522 75V76.0455C436.522 78.5 436.802 80.8182 437.362 83C437.922 85.1515 438.762 87.0606 439.881 88.7273C441.031 90.3939 442.46 91.7121 444.169 92.6818C445.879 93.6212 447.868 94.0909 450.137 94.0909C452.377 94.0909 454.337 93.6212 456.016 92.6818C457.726 91.7121 459.14 90.3939 460.26 88.7273C461.38 87.0606 462.22 85.1515 462.78 83C463.369 80.8182 463.664 78.5 463.664 76.0455V75C463.664 72.5758 463.369 70.2879 462.78 68.1364C462.22 65.9545 461.365 64.0303 460.216 62.3636C459.096 60.6667 457.681 59.3333 455.972 58.3636C454.292 57.3939 452.318 56.9091 450.049 56.9091C447.809 56.9091 445.834 57.3939 444.125 58.3636C442.445 59.3333 441.031 60.6667 439.881 62.3636C438.762 64.0303 437.922 65.9545 437.362 68.1364C436.802 70.2879 436.522 72.5758 436.522 75Z" fill="#EF9037"/>
<path d="M511.406 88.7273V50.9091H519.628V100.091H511.803L511.406 88.7273ZM512.953 78.3636L516.357 78.2727C516.357 81.5455 516.018 84.5758 515.34 87.3636C514.692 90.1212 513.631 92.5152 512.157 94.5455C510.684 96.5758 508.753 98.1667 506.366 99.3182C503.979 100.439 501.076 101 497.658 101C495.33 101 493.193 100.652 491.248 99.9545C489.332 99.2576 487.682 98.1818 486.297 96.7273C484.912 95.2727 483.836 93.3788 483.07 91.0455C482.333 88.7121 481.965 85.9091 481.965 82.6364V50.9091H490.143V82.7273C490.143 84.9394 490.379 86.7727 490.85 88.2273C491.351 89.6515 492.014 90.7879 492.839 91.6364C493.694 92.4545 494.637 93.0303 495.669 93.3636C496.729 93.697 497.82 93.8636 498.94 93.8636C502.417 93.8636 505.173 93.1818 507.206 91.8182C509.24 90.4242 510.698 88.5606 511.582 86.2273C512.496 83.8636 512.953 81.2424 512.953 78.3636Z" fill="#EF9037"/>
<path d="M540.272 58.6364V100.091H532.094V50.9091H540.051L540.272 58.6364ZM555.213 50.6364L555.169 58.4545C554.491 58.303 553.843 58.2121 553.224 58.1818C552.634 58.1212 551.957 58.0909 551.19 58.0909C549.304 58.0909 547.639 58.3939 546.195 59C544.751 59.6061 543.528 60.4545 542.526 61.5455C541.524 62.6364 540.728 63.9394 540.139 65.4545C539.579 66.9394 539.211 68.5758 539.034 70.3636L536.735 71.7273C536.735 68.7576 537.015 65.9697 537.575 63.3636C538.165 60.7576 539.063 58.4545 540.272 56.4545C541.48 54.4242 543.012 52.8485 544.869 51.7273C546.755 50.5758 548.995 50 551.588 50C552.178 50 552.855 50.0758 553.622 50.2273C554.388 50.3485 554.918 50.4848 555.213 50.6364Z" fill="#EF9037"/>
<path d="M590.622 87.0455C590.622 85.8333 590.356 84.7121 589.826 83.6818C589.325 82.6212 588.279 81.6667 586.687 80.8182C585.125 79.9394 582.768 79.1818 579.614 78.5455C576.962 77.9697 574.56 77.2879 572.409 76.5C570.287 75.7121 568.475 74.7576 566.972 73.6364C565.498 72.5152 564.364 71.197 563.568 69.6818C562.772 68.1667 562.374 66.3939 562.374 64.3636C562.374 62.4242 562.787 60.5909 563.612 58.8636C564.467 57.1364 565.66 55.6061 567.193 54.2727C568.755 52.9394 570.626 51.8939 572.807 51.1364C574.988 50.3788 577.419 50 580.101 50C583.932 50 587.203 50.697 589.914 52.0909C592.625 53.4848 594.703 55.3485 596.147 57.6818C597.591 59.9848 598.313 62.5455 598.313 65.3636H590.135C590.135 64 589.737 62.6818 588.942 61.4091C588.175 60.1061 587.041 59.0303 585.538 58.1818C584.064 57.3333 582.252 56.9091 580.101 56.9091C577.831 56.9091 575.99 57.2727 574.575 58C573.19 58.697 572.173 59.5909 571.525 60.6818C570.906 61.7727 570.597 62.9242 570.597 64.1364C570.597 65.0455 570.744 65.8636 571.039 66.5909C571.363 67.2879 571.923 67.9394 572.718 68.5455C573.514 69.1212 574.634 69.6667 576.078 70.1818C577.522 70.697 579.364 71.2121 581.604 71.7273C585.523 72.6364 588.75 73.7273 591.285 75C593.819 76.2727 595.705 77.8333 596.943 79.6818C598.181 81.5303 598.799 83.7727 598.799 86.4091C598.799 88.5606 598.357 90.5303 597.473 92.3182C596.619 94.1061 595.366 95.6515 593.716 96.9545C592.095 98.2273 590.15 99.2273 587.881 99.9545C585.641 100.652 583.121 101 580.322 101C576.107 101 572.542 100.227 569.624 98.6818C566.706 97.1364 564.496 95.1364 562.993 92.6818C561.49 90.2273 560.739 87.6364 560.739 84.9091H568.961C569.079 87.2121 569.727 89.0455 570.906 90.4091C572.085 91.7424 573.529 92.697 575.238 93.2727C576.947 93.8182 578.642 94.0909 580.322 94.0909C582.561 94.0909 584.433 93.7879 585.936 93.1818C587.468 92.5758 588.632 91.7424 589.428 90.6818C590.224 89.6212 590.622 88.4091 590.622 87.0455Z" fill="#EF9037"/>
<path d="M629.39 101C626.059 101 623.039 100.424 620.327 99.2727C617.646 98.0909 615.332 96.4394 613.387 94.3182C611.472 92.197 609.998 89.6818 608.967 86.7727C607.935 83.8636 607.42 80.6818 607.42 77.2273V75.3182C607.42 71.3182 607.994 67.7576 609.144 64.6364C610.293 61.4848 611.855 58.8182 613.829 56.6364C615.804 54.4545 618.044 52.803 620.548 51.6818C623.053 50.5606 625.647 50 628.329 50C631.747 50 634.694 50.6061 637.17 51.8182C639.675 53.0303 641.723 54.7273 643.314 56.9091C644.906 59.0606 646.084 61.6061 646.851 64.5455C647.617 67.4545 648 70.6364 648 74.0909V77.8636H612.282V71H639.822V70.3636C639.704 68.1818 639.262 66.0606 638.496 64C637.759 61.9394 636.58 60.2424 634.959 58.9091C633.339 57.5758 631.128 56.9091 628.329 56.9091C626.472 56.9091 624.763 57.3182 623.201 58.1364C621.639 58.9242 620.298 60.1061 619.178 61.6818C618.058 63.2576 617.189 65.1818 616.57 67.4545C615.951 69.7273 615.642 72.3485 615.642 75.3182V77.2273C615.642 79.5606 615.951 81.7576 616.57 83.8182C617.218 85.8485 618.147 87.6364 619.355 89.1818C620.593 90.7273 622.081 91.9394 623.82 92.8182C625.588 93.697 627.592 94.1364 629.832 94.1364C632.72 94.1364 635.166 93.5303 637.17 92.3182C639.174 91.1061 640.927 89.4848 642.43 87.4545L647.381 91.5C646.35 93.1061 645.038 94.6364 643.447 96.0909C641.855 97.5455 639.896 98.7273 637.568 99.6364C635.269 100.545 632.543 101 629.39 101Z" fill="#EF9037"/>
</svg>
